<svg width="24" height="24" viewBox="0 0 24 24" fill="none" xmlns="http://www.w3.org/2000/svg" class="_1gN4F"><path d="M17.6181 11.1685C17.6388 9.53254 18.4802 8.02137 19.8477 7.16447C18.9811 5.90299 17.5817 5.13186 16.0716 5.0837C14.4828 4.91372 12.9426 6.05272 12.133 6.05272C11.3077 6.05272 10.0612 5.10058 8.71895 5.12873C6.95287 5.18689 5.3463 6.18556 4.48707 7.75937C2.65728 10.9884 4.02214 15.7341 5.77492 18.3442C6.65187 19.6223 7.67677 21.05 9.01784 20.9994C10.3302 20.9439 10.8203 20.1464 12.4044 20.1464C13.9737 20.1464 14.4336 20.9994 15.8018 20.9672C17.21 20.9439 18.0972 19.6834 18.9434 18.3932C19.5735 17.4825 20.0584 16.476 20.38 15.4109C18.7075 14.6899 17.62 13.0195 17.6181 11.1685Z" fill="white"></path><path d="M15.0345 3.3662C15.8023 2.42672 16.1806 1.21917 16.089 0C14.9159 0.125579 13.8324 0.697018 13.0542 1.60046C12.2858 2.49182 11.8966 3.65796 11.9722 4.84204C13.1609 4.85451 14.2896 4.31056 15.0345 3.3662Z" fill="white"></path></svg>