<svg width="24" height="24" viewBox="0 0 24 24" fill="none" xmlns="http://www.w3.org/2000/svg" class="_1gN4F h0QoO">
    <path d="M4.5221 1.82422C4.2853 2.07735 4.14648 2.46113 4.14648 2.9674V21.0296C4.14648 21.5359 4.2853 21.9278 4.5221 22.1728L14.6964 11.9985L4.5221 1.82422Z"
          fill="white" stroke="#D94236" stroke-miterlimit="10"></path>
    <path d="M14.7051 12.0006L18.1509 8.55469L22.1439 10.8247C23.2871 11.4698 23.2871 12.5313 22.1439 13.1846L18.1509 15.4546L14.7051 12.0006Z"
          fill="white" stroke="#D94236" stroke-miterlimit="10"></path>
    <path d="M18.1518 15.4459L14.7059 12L4.52344 22.1743C4.89905 22.5744 5.51964 22.6234 6.22187 22.2233L18.1518 15.4459Z"
          fill="white" stroke="#D94236" stroke-miterlimit="10"></path>
    <path d="M18.1518 8.55413L6.22187 1.77671C5.51964 1.3766 4.89905 1.42559 4.52344 1.8257L14.6977 12L18.1518 8.55413Z"
          fill="white" stroke="#D94236" stroke-miterlimit="10"></path>
</svg>