<svg xmlns="http://www.w3.org/2000/svg" width="272" height="59" viewBox="0 0 272 59" fill="none">
    <path d="M40.628 21.377c0-.186-.17-.372-.17-.372h-.513l-.17.186c-.107.145-.213.285-.318.423-.57.751-1.102 1.452-1.39 2.55h-.341l-.341.187v.186c0 .371-.171.743-.342.93-.17.185-.341.557-.341.928v.372c-.342.186-.683.372-.854.558l-.853.558v-.186c-.342-.744-.342-1.487-.342-2.603v-2.788l-.17-1.301.17-.372c0-.093.043-.186.086-.279.042-.093.085-.186.085-.279 0 0 .341-1.3.341-1.487v-.557c0-.744.171-1.301.342-1.673l.17-.93v-1.673c0-.186.171-.371.342-.371 0-.093.043-.14.085-.186.043-.047.086-.093.086-.186 0-.186 0-.372-.171-.372l-.17-.372h.511v-.186c0-.371.17-1.3.17-1.3V9.665c.172-.558.172-.93.172-1.487V7.62h.17c.446.162.763.042 1.175-.114l.191-.072.854-.371.853.185s.341 0 .512.186h.17l.172-.557h.512s9.218-1.116 9.389-1.116c.34-.371.853-.557 1.365-.557.854-.186 1.366-.372 1.537-.93V4.09h-.171c-.342-.371-.342-.557-.342-.929v-.558h.683V.558h-.853V.372L53.43 0h-.342c-.729 0-1.084.271-1.491.582-.07.053-.141.107-.216.162L50.7 1.3c-.171-.372-.683-.372-1.366-.186H48.31v.186c-.171.372-.342.372-.683.186h-1.024l.682.744h-.17c-.595.485-1.06.126-1.508-.221-.066-.052-.133-.103-.2-.151l-.17-.186-.17.186c-.342.186-.854.186-1.366 0h-.683l-1.707.557-1.025-.185-1.536.371c-.853.186-1.365.186-1.365.186l1.365-.372h-1.365c-.436-.158-.625-.047-.882.104-.045.027-.092.055-.143.082-.17.186-.341.372-.683.372-.853.186-1.877 0-2.73-.186l-1.196-.186-1.024.186-.17-.186h-.171c-.342-.186-.683 0-1.025.186a.516.516 0 0 0-.17.042c-.114.04-.228.082-.342-.042 0 0 0-.186-.17-.186v-.186h-.171c-.57.124-1.138.083-1.707.042-.285-.02-.57-.042-.854-.042-1.024-.371-2.048-.557-3.414-.557h-.17V1.3c-.171-.186-.342-.186-.854 0h-.512L19.29.744a4.21 4.21 0 0 0-.818.107 3.058 3.058 0 0 1-.548.078h-.341l-.171-.185c0-.186-.17-.186-.341-.186-1.195.371-1.708.93-2.049 1.3h-1.195l.17.373v.557h-.34v.372c-.143.775-.64 1.55-1 2.108-.072.112-.139.216-.196.309v.557c0 .558 0 .93-.17 1.301l-.17.93v.186h-.172c0-.372-.341-.372-.512-.372-.17.186-.17.372-.17.743.119.13.32.079.49.036.073-.019.14-.036.192-.036v.186l.342-.371h.17v.371c0 .372.342.558.683.558h.171l.683-.372.512-.186v-.186c-.065-.284-.13-.513-.186-.71-.09-.317-.155-.547-.155-.777 0-1.487.512-2.602 1.194-3.346.602-.327.806-.078.963.113.02.026.041.051.062.073l.17.372.342-.743h.341c.17.185.512.743.512.743l.342.558h-.17c-.467 0-.65.616-.808 1.147l-.047.154v.372l-.17.186c-.17.185-.17.371-.17.743v.186h-.172c-.341 0-.341 0-.512.186v.558c0 .743-.17 1.3-.682 1.487h-.171v.185c0 .08 0 .127.014.167.018.054.06.1.156.205 0 0 .171.186.171.372s-.17.186-.341.186h-.342v.186c0 .583-.046 1.014-.09 1.425-.041.375-.08.734-.08 1.177v1.301c0 .186-.171.372-.342.558h-.17v.372c0 .743-.171 1.487-.513 2.23-.17.558-.341 1.116-.341 1.86 0 .371 0 .743.17.929v.186h-.17c-.17 0-.341 0-.512.185h-.17l-.171.744v.743l-.171.744s-.17.186-.342.186h-.17v1.859h-.683l.17.557-.17.744c-.17.186-.17.558-.17.93v.371l-1.708 1.859 1.024-.744v.186l-.512.558c0 .186-.512 1.115-.512 1.115 0 .115-.065.159-.155.22-.056.037-.121.081-.186.152l-.171.186v.186c0 .186-.17.186-.17.186h-.171v.185c0 .115-.066.16-.156.22-.055.037-.12.081-.186.152h-.17v.372c0 .372-.171.558-.513.558L7 34.203l-.512.743c-.41.446-.82.416-1.23.387a4.212 4.212 0 0 0-.307-.015h-.682c-.114-.372-.38-.578-.645-.785a3.02 3.02 0 0 1-.38-.33l-.682-.558v-.186c0-.186 0-.186-.513-.372 0-.186 0-.186-.17-.557l.17-.93h-.17l-.342-.743V29.37c-.17-.186-.341-.372-.341-.558v-1.673l-.341-.372c-.171-.186-.342-.372-.683-.186H0v1.116c0 .93 0 1.673.17 2.416 0 0 .171 2.23.171 2.788v.186h.171c.342 0 .342.186.342.186v.186c0 .744.34 1.115.682 1.487.342.372.512.558.683 1.115v.558l.342-.186h.341v.372c0 .558.341.743.683.743.341.186.512.372.683.744v.186h.17c.683 0 1.195.186 1.707.372 0 0 .683.186 1.025.371h.17l.171-.185c.512-.744 1.366-1.302 2.22-1.86h.17v-1.115l.512-.185c-.512-.558-.512-.558-.341-.744h.17v-.186c0-.093.043-.186.086-.279.042-.093.085-.186.085-.279l.17-.557v-.186l.854-.93v-.371c0-.186.171-.372.342-.372h.17v-.744c0-.371 0-.743.171-1.115h.341v-.93l.171-1.115.854-.557c.17-.558.341-.744.682-.93h.171v-.371c0-.372 0-.744.171-1.116a1.6 1.6 0 0 1 .072-.439c.047-.175.099-.369.099-.676v-.744l1.877.186-1.365-.557v-.558h.341v-.186c0-.186.17-.743.17-.743 0-.077.03-.186.064-.314.049-.18.108-.398.108-.616v-.743h.341v-.186h.17v-1.116h.513v-2.044c.512-.558.512-1.116.512-1.673 0-.372.17-.93.512-1.487v-.372c0-.093-.043-.186-.085-.279a.7.7 0 0 1-.086-.279c0-.186 0-.371.171-.557l.512-.558h-.341v-.744l.512-.371c.17-.558.341-.744.683-1.116v-.185c0-.186 0-.372-.171-.558v-.186h.341v-.186c0-1.115.171-1.859.512-2.416l.854.186c1.195.185 2.22.371 2.902.929h.341c.446-.162.763-.042 1.175.115.062.023.125.047.191.07l.683.187 2.048.186c.37.057.724.097 1.066.135.764.086 1.47.166 2.178.422h.17l-.34.558-.513.372h.512c.512.186.683.186.854-.372 0-.186.17-.372.341-.372h.17V7.25l.171-.185c.342.371.854.557 1.366.743l1.195.372h-.17c-.513.558-.683 1.859-.683 2.974 0 .744-.171 1.487-.342 2.045h-.512v1.3c0 .187 0 .373-.17.559v.185c-.513 1.116-.513 2.417-.513 3.532v.744c0 .743 0 1.487-.17 2.23l-.342.558c-.17.186-.17.372-.17.558v.371c0 .218.058.372.106.5.035.09.064.167.064.244l.341.558c-.341.371-.512.743-.512 1.3 0 .558.171 1.116.342 1.674.17.557.341 1.301.341 2.23v.372h.342c.368-.134.56.022.766.189.08.064.162.13.258.183.17.186.341.372.683.558l.853.186-.512-.558v-.186l.17-.186.171.372h.342l.341-.186c.17-.186.342-.372.683-.372h.17v-.558h.342l.17-.185.172-.558.341-.372s.17-.186.341-.186l.171-.186-.341-.185c0-.093-.043-.14-.086-.186-.042-.047-.085-.093-.085-.186v-.186h.854v-.186l-.171-.93h.17c.086 0 .171-.046.257-.092.085-.047.17-.093.256-.093l.341-.186h.341v-.372c0-.186 0-.558-.17-.744v-.185h.341v-.186l-.17-.372h.17c.052 0 .12.017.193.036.169.043.371.094.49-.036.17-.186.17-.372 0-.558v-.186l.341.372.171-.186c0-.186.17-.186.341-.186h.171v-1.487h-.17c-.683-.371-1.025-.371-1.366-.371ZM124.616 13.755h-.171c-.171 0-.341.186-.341.186l-.342.372v-.186s0-.186-.17-.186l-.171-.186-.342.186c-.17.186-.341.372-.682.372h-.171v.186c0 .372-.171.93-.512 1.115l-.171.186c-.341.744-.512 1.115-.512 1.673l-.512.372s-.171 0-.171.186l-.171-.186v.372c-.17.743-.682 1.673-1.024 1.859h-.171v.185s.001.186-.17.186c-.171.186-.342.372-.342.558l-.341.743h-.512v.186s-.171.372-.342.372h-.341v.186c0 .454-.226.661-.402.823a1.72 1.72 0 0 0-.11.106l-.171.186-.341.558c-.171.372-.342.558-.683.558h-.171v.185c0 .372 0 .744-.17.93-.228 0-.456.165-.683.33a3.277 3.277 0 0 1-.342.227l-.682.744-.342-.186.171.372a2.103 2.103 0 0 0-.512.372h-.171v.372c0 .185 0 .371-.171.557 0 0-.17.186-.341 0l.171-2.602v-1.301c.341-.186.512-.558.512-.93.17-.558.341-.743.512-.93h.171v-.557c0-.372 0-.93.17-1.301 0-.186.043-.372.086-.558.042-.186.085-.371.085-.557v-.558h.171c.17 0 .341-.372.341-.558 0-.186 0-.557.171-.557h.341v-.744c0-.743.171-1.301.342-1.859v-.186c.17-.557.17-.93.17-1.673v-.743h-.17c-.513 0-.683 0-.683-.372v-.186h-.171c-.171 0-.512 0-.512-.186-.085 0-.171-.046-.256-.093-.085-.046-.171-.093-.256-.093h-.171s-.171.186-.341.186h-.171v.372l-.683 1.487h-.853v.186c0 .272-.092.445-.208.664-.042.08-.088.166-.134.265l-.17.372.341.372.512.744c-.341.557-.341 1.115-.341 1.672l-.171 1.116-.512.93v2.044c-.837 1.823-1.018 4.183-1.185 6.377l-.01.129v.93h.171l.512.557v.186h.17c.2 0 .4-.064.566-.117.117-.037.217-.07.288-.07l.171-.185v.186c0 .186 0 .372.17.372h.854v-.186l.171-.372 2.219-.744h-1.195v-.185c0-.186.171-.372.341-.372.171 0 .171-.186.171-.372v-.186h.171l.341.372v-.93c.171-.371.512-.929 1.024-.743h.171v-.186c.171-.558.512-.93 1.024-1.115l1.878-.93-1.707.372c0-.372.171-.557.341-.557h.171v-.186l.171-.186c.04-.044.08-.098.123-.155.137-.186.299-.403.56-.403h.17v-1.301h.512l.171-.744.683-.743.341-.186.342-.372c.341-.186.512-.371.341-.93v-.185l.342.372.17-.372c0-.186.171-.372.171-.372h.512v-.558c0-.371.171-.557.341-.557h.171v.186c-.341 2.416-.683 5.204-.683 8.364-.341.372-.512 1.116-.512 1.86 0 0-.17.743-.17 1.115v.185h.17c.342.186.683.186 1.195.186h.683v-.371s0-.372-.171-.372v-.186h.342v-.186c.17-.558.17-1.301.17-2.045l.171-2.416.171-.744c.171-.557.171-1.115.171-1.673.407-.148.382-.413.355-.703a2.418 2.418 0 0 1-.014-.226v-.558h.512V16.73c.171-.744.341-1.488.341-2.231v-.558l-.17-.186ZM113.52 28.44l-.171-.372.171.186v.186ZM88.426 23.793s0-.186-.17-.372v-.186h-.171c-1.024 0-2.39 0-2.731.744h-1.537v-.372c0-.372-.17-.93-.341-1.3l-.17-.93h.17l.683-.186-.342-.186-.17-.186v-.558h-.171c-.083 0-.126 0-.148-.021-.023-.022-.023-.069-.023-.164v-.558c0-.186.17-.372.341-.372s.171-.186.171-.372v-.186c0-.093-.042-.279-.085-.464-.043-.186-.085-.372-.085-.465-.171-.558-.171-.744-.171-.93v-.185l.17-.186h.683v-.186c0-.372.171-1.301.171-1.301 0-.186.043-.372.085-.558a2.52 2.52 0 0 0 .086-.558v-.557H84.5c-.17 0-.512-.186-.512-.186-.405 0-.597-.117-.828-.257-.061-.037-.125-.076-.196-.115l-.171-.186-.17.186h-.342l-.17.372h-.172v1.859c-.341 0-.341.371-.341.743 0 .186 0 .558-.17.744l-.683.186.17-.186c.17-.186.17-.558.17-.93v-.371s-.17-.186-.17-.372v-.186h-.17c-.412 0-.714-.36-.993-.695-.069-.082-.135-.162-.202-.235l-.683-.557-.17.186c-.342.186-.513.186-.684 0l-.341-.186v1.301h.17c.342.372.513.558.513.93l.17.557.171.744c0 .093.043.186.085.279a.701.701 0 0 1 .086.278v.186h.17c.171.186.171.372.171.558v.372l.17.186v.557c0 1.115-.17 2.23-.682 2.788l-.17.186v.186c0 .093.042.232.085.372.042.14.085.279.085.372 0 .371 0 .743-.17 1.115-.171.372-.342.744-.683.93l-.171-.372-.342.371c-.17.186-.341.186-.512.186-.17 0-.17-.372-.17-.372l.341-.371c.341-.372.683-.93.683-1.673v-.372h-.17c-1.025-.558-1.879.372-2.39 1.115l-.171.186v-.186c-.513-1.3-.513-2.974 0-5.018.2 0 .282-.064.351-.117.049-.038.09-.07.16-.07h.171v-1.672c.25 0 .317-.2.402-.452a2.87 2.87 0 0 1 .11-.292c.171-.558.342-.743.683-.93h.171v-2.044h-.17c-.854 0-1.366.186-1.537.558h-.341c-.171 0-.342 0-.513.557l-.853.93-.341 1.3.34-.37v.185l-.853.744.171.185c0 .115-.065.16-.155.22a.965.965 0 0 0-.186.152l-.342.372.171.372h-.17c-.2 0-.342.064-.46.116-.082.038-.153.07-.224.07l-.17.186.17.185c.066.071.106.142.14.203.056.098.096.17.202.17v.185h-.512v.186h-.171v1.115l-.17.372c-.171.186-.171.186-.171.558v.186c0 .557 0 1.3.341 1.487l.341.185v.93h.171c.683.186 1.024.743 1.024 1.673v.186h.342c.341 0 .683.186.853.371v.372c0 .186 0 .372.171.558l.17.186h.171v-.186c.171-.186.342-.372.683-.372h.854c.203 0 .401.006.596.01.947.026 1.797.05 2.647-.568l.512.186-.17-.371s.17-.186.341 0h.341l-.17-.558s-.171-.372-.171-.558c.234-.127.308-.167.386-.18.035-.006.072-.006.126-.006l.341.186v-.372c0-.371 0-.557.342-.743h.17v.372c0 .186.171.372.513.372.341 0 .512.185.512.557v.372c0 .093.042.14.085.186.043.046.086.093.086.186 0 0 .17.186.17.371.342.186.512.186.854 0l.853-.185v.371c.171.186.342.186.683.186 0 0 .17 0 .512.186h.171v-.186c.17-.372.341-.557.854-.557l.512-.186v-.186c0-.186 0-.372.17-.372h.683v-.186l.17-.186c.171-.186.172-.186.342-.186h.171v-.186c0-.557 0-.743-.17-.929Z"
          fill="#fff"/>
    <path d="m33.288 15.242-.17.186-.171.372-.17-.186-.342 1.116v-2.045h.683v.186h.17v.371ZM54.114 13.57l.342-.372v1.673h-.17c-.172.186-.342.186-.513.186v1.115c0 .583-.047 1.166-.091 1.723-.04.508-.08.993-.08 1.437v.186c-.17.93-.17 1.859-.17 2.974v1.301h-.171c-.341 0-.342 0-.512.186-.342.372-.342.93-.342 1.487v.744h-.341c0 .093-.043.139-.085.185-.043.047-.086.093-.086.186v.186l.342.558-.683-.186h-.17c-.172.186-.342.558-.342.744v.371l-.17-.186c0-.185-.172-.185-.172-.185l-.341.371c-.17.372-.341.744-.854.744h-.17c-.512 0-.683-.186-1.025-.558l-.34-.372-.342.372c-.342.372-.512.372-1.025.372h-.17l-.17-.372-.513-.743v-.558c0-.558 0-.744.17-1.115l.171-.558h-.17c-.171.372-.513.744-1.195.744h-.171v-.372c0-.372 0-.558-.17-.744l-1.708-1.859 1.366.93v-.186s.17-.372.17-.558l-.17-1.115.341-1.115c.171-.372.342-.93.342-1.487v-.558h.17c.171 0 .342-.186.342-.186l.341-.372v.558h.17c.513-.186.513-.558.513-.744v-.557l-.17-.744c.34-.93.34-1.487.34-2.23v-1.116h.171c.683-.186 1.025-.557 1.025-1.3v-.187h.17c.342-.186.683-.186 1.195-.186h.683l1.024-.371.342.186.512.371h2.048v.186c0 .372.342.744.513.93v.185Zm-6.316 7.992c-.341 1.302 0 1.86.342 2.417.341.372.512.744.512 1.673v.186c.683 0 .853-.744.853-1.673 0-.744 0-1.301.513-1.487h.17v-.186c-.17-.372-.17-.744-.17-1.301 0-.558 0-1.115.17-1.86v-.557c0-.093-.042-.14-.085-.186-.043-.046-.085-.093-.085-.186l-.171-.185h.17c.171 0 .342 0 .342-.186v-.558c0-.93-.17-1.487-.512-1.859v-.186l-.683 3.16-.341.744c-.047.153-.107.32-.17.494-.163.458-.343.96-.343 1.365l.171.372-.512-.186h-.17v.186ZM104.131 14.87l-.171-.185c-.17 0-.17-.186-.17-.186v-.186l-.512-.558c-.342-.186-.512-.557-.512-1.115v-.372h-.342l-.156-.024c-1.129-.177-2.115-.331-3.258.024l-.512.558-.683.93v-.187c0-.743.512-1.115.854-1.3.085 0 .128-.047.17-.094.043-.046.086-.093.171-.093l.341-.371-.341-.186c-.3-.164-.47-.04-.855.247l-.17.125c-.34.371-.853.743-1.365.743h-.17v.186c-.106.115-.146.23-.202.388a3.815 3.815 0 0 1-.14.355c0 .273-.092.445-.208.664-.042.08-.088.166-.133.266l-.171.186v-1.673l-.342.93c-.17.185-.17.557-.17.743v1.487l.512-1.301h.17v-.186h.171v1.859h-1.195v.186c-.17.371-.17.743-.17 1.115 0 .557 0 1.115.17 1.673 0 .167.035.372.073.597.046.276.098.583.098.89 0 .372 0 .558-.17.93l-.171.185H94.4v.186s-.17.372-.17.558h-.342v.186c-.342 2.044-.342 4.089-.342 6.505 0 2.789.171 5.763.342 8.551v.93c.17.185.341.743.341 1.115v.743l.342-.743.17-.186.171 4.09v.371c0 .444.039.93.08 1.438.044.556.09 1.14.09 1.722v1.302h.171c.171.185.513.185.854.185h.853v-1.3c0-1.488 0-2.79-.17-3.904 0-.536-.04-1.158-.08-1.804a33.994 33.994 0 0 1-.09-2.1v-1.301h-.172c-.341-.372-.341-.93-.341-1.487v-.744c0-.557 0-.93-.17-1.3.34-.373.682-.93.682-1.488v-.186c0-.558-.17-1.115-.341-1.487l-.171-.372v-3.346l.341-.371.171-.372c.17-.744.17-1.487.17-2.045V23.98c0-.93 0-2.045.342-2.788v.557c0 .186 0 .372.17.744.115.124.228.083.342.041a.515.515 0 0 1 .171-.041c.07 0 .17-.032.288-.07.166-.052.366-.116.566-.116h.17v-.186c.342-.372.683-.743 1.195-.93.171 0 .512 0 .683.187h.171v-.186c.045-.1.079-.186.11-.266.085-.219.152-.392.402-.664l.341-.557v1.3l.342-1.114v-.186h.341v-.186c0-.558.171-.93.342-1.116l.17-.371v-.186c-.17-.372-.17-.558-.17-.744 0-.743.341-1.115.682-1.487l.171-.186v-.186c.512-.185.512-.185.512-.371Zm-6.999 5.206c.004-.678.043-1.317.512-1.488h.171v-.557c0-.558.17-.93.341-1.301.171-.186.342-.558.342-.744 0-.186 0-.372-.17-.558v-.186l.853-.371c.341-.186.683-.372 1.195-.372h.17v-1.115c.512 0 .683.185.854.371.171.186.341.372.683.372.17.558.17.93.17 1.487 0 .93-.17 1.86-.682 2.603-.513.743-1.195 1.115-2.049 1.115-.683.744-1.195.93-2.048.744h-.342ZM68.112 21.563v.185c0 .186 0 .372-.17.372v.186l-.342.743-.17.93c0 .167-.035.334-.073.518a3.68 3.68 0 0 0-.098.783c0 .093.042.232.085.372.043.14.086.279.086.372v.371c0 .186-.171.372-.171.372l-.512.744v.372c0 1.115-.342 1.858-.854 2.602l-.512.93h-.853l-.683.185v.186h-.683a3.832 3.832 0 0 1-2.049 0l.171.744-.512-.93c0-.095 0-.142-.023-.164-.022-.022-.065-.022-.148-.022h-.17l-.171-.186s-.17-.186-.512-.371h-.171v-.744l.17-.186c.342-.372.854-.372 1.537-.372h.17l.172.186c.17.186.34.372.34.744v.186h.172c.17-.186.512-.186.853-.186.342-.558.683-.93 1.195-1.115l.512-2.417.08-.342c.312-1.35.603-2.604.603-4.49-.106 0-.146.07-.201.168-.035.06-.075.132-.14.203l-.171.372-.17-.558c-.513.186-.513.558-.513.743v.744h-.341c-.171-.186-.342 0-.342 0a.7.7 0 0 1-.085.279c-.043.093-.085.186-.085.279v.372l-.342-.186h-.17c-.171-.186-.342-.186-.342-.186h-.17v.557h-.854l-.342.372-.17-.186v.186h-1.195v-.186c-.171-.186-.342-.372-.683-.372s-.683-.185-.683-.557v-.558l-.17.186c-.1.108-.142.154-.193.172-.036.014-.078.014-.149.014h-.341v-.372c0-.186-.342-.186-.683-.186 0 0 0 .186-.171.186l-.512.372v-.558c.17-.743.341-1.115.683-1.487V18.96c0-.743 0-1.487.17-2.23v-1.488l.342.93.17.186c.342-.372.513-1.116.513-2.045v-.186h.17c.513-.186.683-.743.854-1.487v-.186l.341.186c.342.186.512.186.683.186.342-.186.683-.372.683-1.115v-.186h.17c.427-.28.854-.511 1.238-.72.384-.21.726-.396.982-.581l.341-.186v.743c1.025-.186 1.537.186 2.049.558 0 0 .512.186.682.372h.171v.557c0 .186.043.326.086.465.042.14.085.279.085.465.17.186.341.371.341.557v.372l1.025-.372V15.8l-.171.186.17.744.171.185c-.17.186-.17.372-.17.558l.17 1.301-.17.558-.171.93a.7.7 0 0 0 .085.278c.043.093.086.186.086.279v.186c0 .218.058.308.107.383.034.052.063.097.063.174Zm-4.097-3.904.171-.558v-.186h-.512l.512-.371c0-.186.17-.186.17-.186l.342-.372v-1.859h-.683l-.113-.064c-.34-.194-.83-.474-1.594-.308l-.341.558c-.341.372-.683 1.115-.683 1.673 0 .186.17.558.342.744h.17v.185c-.17 1.488-.512 2.789-1.195 3.532l.342.372v.558c0 .186 0 .371.341.557v-.186c.17-.743.512-1.3 1.024-1.673.063-.068.129-.137.196-.207.474-.496 1-1.045 1-2.023v-.186h.511ZM196.033 14.675l.167.183c0 .365 0 .365.831.365 0 .73 0 1.096-.166 1.644v.183s-.167.913-.167 1.279v.182h-.332l-.499-.548h-.499l-.166.183h-.332l-.166-.183c-.167 0-.167-.182-.167-.365v-.183l-1.496.548h-.332v-.182l-.166-.183c-.333 0-.499.183-.499.365l-.166.548-.499-1.096c0-.058 0-.08-.005-.08-.004-.002-.008.004-.016.012-.021.023-.062.068-.145.068v.183l-.333-.183s-.166 0-.166-.182c0 0-.166 0-.166.182v.183l.166.365h-.332c-.167 0-.333 0-.499.183l-.166.183h-.831c-.167 0-.333 0-.499-.183 0 0-.166 0-.166.183v.182h-.167c-.498-.182-.997-.182-1.329-.182h-.832l-.498.548c-.166.183-.665.183-.831 0v-.366h-.499c-.166 0-.166.183-.166.366v.183h-.333c-.117-.13-.152-.076-.221.03a1.017 1.017 0 0 1-.111.152c0 .183-.166.183-.499.183h-.166l.166.183c.166.182.166.365.166.73v.183h-.166c-.166.183-.332.548-.332.73 0 .366 0 .549-.333.549 0 .183 0 .365.166.365h.167v.183c-.167.548-.167 1.096-.167 1.462l-.166 1.827v1.461l-.498-.365v.73l.332.366-.166.183.166.365-.166-.183h-.333v-.913c-.111-.122-.221-.081-.332-.04-.056.02-.111.04-.166.04h-.167v.182c.064.14.127.253.182.35.087.155.151.268.151.381v.366h-.499v.182c0 .113.064.156.151.216.055.037.118.08.182.15l.166.182-.166.183c-.167.183-.167.183-.167.365v.183l-.498-.183s-.166.183-.166.366h-.333v.365l.166.366h-.831v-.914c-.332 0-.665 0-.831-.183-.166-.182-.166-.365-.166-.548 0-.182.041-.32.083-.456.041-.137.083-.274.083-.457v-2.01l.332.914.333.548h.499c.166-.183.166-.183.166-.366l-.166-.73h.332v-.183l-.166-.183.166-.548-.166-.73v-.183l.166-.366c0-.182 0-.365-.166-.365l-.166-.183v-.182c0-.183.332-1.28.332-1.28l.333-1.46c0-.183-.167-.366-.167-.366h-.166v-.548c.166-.183.166-.366.166-.548 0-.183-.166-.366-.332-.548-.166 0-.166.182-.166.182v.366h-.665c-.333 0-.499 0-.665-.183h-.166c-.167 0-.167.183-.167.365v.183h-.498c-.333 0-.499 0-.665.183h-.333c-.166 0-.831-.366-.831-.366a8.32 8.32 0 0 1-.322-.188c-.479-.288-.849-.51-1.673-.36l.665.548-.997-.182c-.166 0-.499 0-.665-.183-.332-.183-.997-.366-1.496-.183h-.166v-.365c-.166-.183-.333-.183-.499 0h-.166l-.333.73v-.913h-.166c-.083 0-.125.046-.166.091-.042.046-.083.092-.166.092l-.333.183c0 .182-.166.182-.166.182l-.166.183-.499-.73-.332-.184h-.167l-.332.183s-.333 0-.333.366v.182h-.166c-.548-.15-.757-.053-1.279.19-.111.053-.237.111-.383.176l.166.73v.731h-.498v.183c.166.183.166.365.166.73 0 .549-.166 1.097-.499 1.645-.332.365-.499 1.096-.499 1.644 0 .091.042.229.084.366.041.136.083.273.083.365v.183l-.167.182c-.166.183-.166.366-.166.366v.365h-.499v.548c.167.366.333.73.333 1.279 0 .183-.042.365-.083.548a2.474 2.474 0 0 0-.083.548c-.167.366-.167.914-.167 1.279 0 .091.042.228.084.365.041.137.083.274.083.366v.183h-.167c-.166.182-.498.182-.831.182-.083 0-.124-.046-.166-.091-.041-.046-.083-.091-.166-.091h-.499l-.166-.183c-.166-.183-.332-.366-.499-.366h-.332V31.3c0-.365.166-.73.166-.73l.166-1.097v-1.461c.167-.549.167-1.097.167-1.462v-.913c0-.731 0-1.462.332-1.645v-1.279l.166-.365s.166-.183.166-.365l.167-.914c0-.913 0-1.096.166-1.096.094-.104.135-.148.153-.201.013-.04.013-.085.013-.164v-.183c0-.183 0-.366-.332-.366l-.499-.182.332-.183v-.183l-.332.183a.55.55 0 0 0-.218.068 1.01 1.01 0 0 1-.447.115c-.665-.73-1.496-.731-2.493-.731h-1.663l-.166-.913h-.166l-.499.548c-.166 0-.166.182-.166.182v.366l-.332-.183-.167-.183c-.166 0-.332 0-.332.366v.913l-.333-.73c-.083 0-.124-.046-.166-.092-.041-.046-.083-.091-.166-.091-.499 0-.665.182-.831.365-.083 0-.125.046-.166.091-.042.046-.084.092-.167.092l-.332.183.166-.549-.499.183-.332-.183h-.166c-.166 0-.166 0-.166.183v.183h-.998c-.499 0-.831 0-1.33-.183-.332.183-.498.366-.498.73v.184l-.167.913.167.73-.167.914v3.289c0 1.827 0 3.471-.332 4.567l-.166.914v.365h-.166l-.167.183v.182h-1.33c0-.182-.166-.182-.166-.182h-.166v-1.28l-.831-1.643v-.366l.166-.913.166-.366-.166-.365-.166-.183.166-.182-.166-.183.166-.365v-.366c.166-.365.166-.365.332-.548l.167-.365c-.166-.183-.333-.731-.333-1.096 0-.183.167-.366.167-.366h.332v-.183s-.166-.182-.332-.182h-.167v-.183c0-.183.167-1.005.333-1.827.166-.822.332-1.644.332-1.827l-.166-.183c0-.182-.166 0-.166 0l-.166.183-.333-.365c-.166 0-.166.182-.166.182v.183l.166.548-.665-.183c-.332 0-.831-.182-.831-.548h-.166l-.166.183-.167-.183h-.166c0-.182-.166-.365-.166-.365-.166-.183-.166-.183-.166-.365v-.366h1.496v.548h.166c.166-.182.332-.365.332-.548v-.365l.998-.183c.665 0 1.163-.183 1.33-.548v-.73c0-.302.05-.604.095-.875.037-.222.071-.423.071-.587l.166-.914v-1.278c0-.183 0-.366.166-.549v-.182c.167-.548.333-.914.665-1.097h.166v-.182c-.166-.183-.166-.548-.166-.731 0-.365.166-.73.333-1.096.332-.548.498-1.096.498-1.644v-.548h.167c.166 0 .332-.183.332-.366 0 0 0 .183.166.183v-.366h.166c.832.366.998 1.462.998 2.01 0 .214-.057.616-.104.95a5.764 5.764 0 0 0-.062.512v.182l-.333.366-.166 1.461c-.078.257-.119.554-.158.835-.045.318-.086.616-.175.81-.166.365-.332 1.278-.332 2.192 0 .487-.074 1.055-.123 1.434-.025.19-.043.332-.043.393l.166.183h.332v.182l1.497-.183s5.319-1.096 5.984-1.278h.166v.73c.166 0 .166-.182.166-.365v-.365h.333c.166 0 .166 0 .332.182h.166l.333-.182v-.548l.332.548.499.548c.499.182 1.164.182 1.662.182.499 0 .998 0 1.33.183l.166-.548-.166-.365s-.166-.183-.166-.366v-.182h.166c.332 0 .332-.183.332-.183v-.183c0-.183-.166-.365-.166-.365l-.166-.183.166-.183c.166-.365.333-.548.333-.548l.166-1.096c0-.73 0-1.096.166-1.279h.333v-.182c-.167-.183-.167-.366-.167-.549 0-.09.042-.182.084-.274.041-.09.083-.182.083-.274.166-.182.166-.548.166-.73V8.28h.166c.103 0 .142-.07.196-.167.034-.06.073-.129.137-.199 0 0 0-.182.166-.182l-.333-.366.167-.183c0-.09.041-.137.083-.182.041-.046.083-.092.083-.183 0-.183.166-.183.166-.183-.166-.182-.166-.365-.166-.548v-.73l.166-.366v-.73h.166l.166-.183v-.183c0-.091.042-.137.084-.183.041-.045.083-.091.083-.182.166-.183.166-.366.166-.731v-.183h.166c.166 0 .333 0 .499.183.083 0 .166.045.249.091.083.046.166.091.249.091h.167v.366c0 .548-.167.73-.499.73h-.166v.183c0 .183.166.366.498.366h.333l-.166.365-.167.183-.332.548v.183c0 .09.042.137.083.182.042.046.083.092.083.183l.166.183c-.166.365-.166.365-.332.548 0 .182-.166.365-.166.365v.366l.166.548-.166.548v.182h.332l-.665.548s-.166.183-.166.366c0 .182.166.182.166.182l.167.183v.183c-.084.091-.125.183-.167.274a.957.957 0 0 1-.166.274l.166 1.096h-.166c-.166.183-.166.365-.166.365l.166.366-.665-.183.166.183c.447.654.36 1.016.218 1.61l-.021.087-.03.13c0 .214-.057.365-.105.49-.033.09-.062.165-.062.24-.166 0 0 .183 0 .183.167.366.832.366 1.164.183h.997c.036 0 .116.008.226.02.406.041 1.21.124 1.603-.02h1.662c.499 0 2.826.183 3.99.365l.332.183c.166 0 .333-.183.333-.183v-.182l1.329.73.665-.182c.167-.183.499-.366.831-.183l1.33.183h.499c.166-.183.332-.366.332-.548v-.548h.333c.166 0 .166-.366.166-.548v-.549h.499l-.166-1.278v-.914c0-.548 0-1.096.498-1.644v-.548c0-.914 0-1.827.831-2.01 0-.183-.166-.182-.166-.182h-.166V7.55c-.166 0-.166-.183-.166-.366 0-.365 0-.73.166-1.096l.166-.182s.166-.183.166-.366v-.183l-.166-.182.166-.183c0-.076.029-.151.062-.24.048-.125.105-.277.105-.49v-.366l.498.183v-.183c-.166-.183-.166-.365-.166-.548 0-.366 0-.73.166-1.096v-.548c.167-.366.499-.366.831-.183.167.183.333.183.499.183h.166v.182c0 .548-.166 1.645-.166 1.645-.166.73-.166 1.278-.166 1.826v1.097h-.166l-.333.365c-.083 0-.124.046-.166.091-.042.046-.083.092-.166.092v.182a.594.594 0 0 1 .166.366c.166.183 0 .548-.332.913 0 0 0 .183.166.183h.166l.332-.183-.166.366c-.166.913-.498 1.827-.997 2.74l.332.365v.366a.687.687 0 0 1-.083.274c-.041.091-.083.183-.083.274l-.166.548-.333-.73s-.166 0-.166.182c0 .267.089.437.202.652.041.079.086.164.131.261 0 .183.166.366.166.366l-.166.182h.166c0 .549-.333.914-.499 1.097l-.499.548.167.182h.332v.183c.665-.365 1.33-.548 1.995-.548h.166c.831 0 1.496-.183 2.161-.73h.665c.193-.043.386-.076.575-.108.624-.105 1.203-.203 1.586-.623h2.161c1.662 0 2.992 0 3.989.365ZM235.097 40.617c0 .183 0 .366-.499.183v.183l-.166.183c-.166.182-.166.182-.499.182h-.166v.366c0 .19.02.38.039.562.036.344.07.66-.039.9a1.168 1.168 0 0 0-.107.142c-.083.125-.148.223-.392.223h-.166l.333.548s.166.182.166.365v.183h-.166c-.333 0-.499 0-.499-.183l-.333-.365v.365c0 .365.167.548.333.73.044.05.089.086.13.119.113.09.202.162.202.43v.183h-.166c-.332 0-.665 0-.831.182-.166.366-.332.731-.166 1.28h.166l.499-.184-.167.548v.183h-.166c-.243 0-.308.098-.391.222-.03.046-.063.095-.107.144-.167.182-.333.365-.665.182v.366c0 .182.166.365.332.548 0 .091.042.182.083.274a.687.687 0 0 1 .083.274v.182h-.332c-.166.183-.166.366-.166.549v.73h-.333c-.166 0-.166-.182-.166-.365v-.365h-.166c-.039.043-.088.086-.139.131-.166.148-.36.32-.36.6.069 0 .109.03.157.067a.476.476 0 0 0 .342.115h.166v.183c-.166.73-.332 1.279-.665 1.827l-.166.182c0 .092-.042.183-.083.274a.687.687 0 0 0-.083.274l-.167.731-.166-.73c-.166-.366-.332-.549-.665-.549-.166.183-.332.366-.332.548l-.166.183-.323.531c.048.012.1.017.156.017.333.183.499.366.665.548v.183c0 .365-.332.548-.665.73-.055.062-.129.122-.203.183-.148.122-.295.244-.295.366l-.499 1.827.166-1.827-.332.365c-.166.366-.333.548-.998.366 0 0-.166.182-.166.365v.183h-.166c-.499 0-.665 0-.997-.183h-.499v-.183c0-.365-.166-.548-.333-.73l-.166-.183.166-.183a3.178 3.178 0 0 0 .832-2.192v-.366h-.167c-.166 0-.166.183-.166.366v.365h-.166l-.333-.182.167.182c.166 0 .166.183.166.366v.548h-.333c-.332-.183-.831-.183-.831-.183-.332 0-.665 0-1.163-.365-.167 0-.665.182-.665.182h-.333v-1.096l.333.183h.166l-.166-.548c-.166-.183-.166-.366-.166-.731v-.365h.332v-.366h.166c.333 0 .665 0 .998.183.055 0 .11.02.166.04.111.041.221.082.332-.04.081 0 .122 0 .144-.02.023-.023.023-.069.023-.163v-.365l.498.548c.045.049.077.098.108.143.082.124.148.222.391.222.166 0 .332-.182.332-.548v-.182h.167c.332-.183.664-.183.664-.183.499 0 .665 0 .998.182.127.14.157.066.239-.142l.057-.14.016-.038.02-.045.167-.548.166.548.997-2.01h.166c.167 0 .333 0 .333.366v.183c0 .365 0 .365.166.548.166-.183.166-.183.166-.366v-.182l.166-.731c0-.366-.166-.548-.498-.548h-.166v-.914h.332c.166-.182.166-.182.166-.365v-.183h.166c.333 0 .499-.182.665-.548l.054-.122c.12-.282.172-.404.611-.243h.167v-.183c-.333-.73-.499-1.279-.499-2.192v-.366h2.327c-.499-.548-1.164-1.461-1.164-1.461v-.914c0-1.278 0-2.192.167-3.105v-.183h.166c.332 0 .332 0 .499.183l.498.365v-.183a.555.555 0 0 0-.498-.548l-.333-.183v-.182c0-.366 0-.366.166-.548.167 0 .333-.183.333-.548v-.366c-.166.183-.333.366-.333.548l.167.183-.665.365v-.913h-.167v-.914h.167l.332-.182-.166-.183-.997-.913 1.163.548v-.183c0-.365 0-.73-.166-.914h-.665l.166-.365v-.183c0-.091.042-.137.083-.182.042-.046.083-.092.083-.183.167-.183.167-.365.167-.365h-.167v-.183c.167-.183.167-.365.167-.548v-.366l.332.183c.333 0 .499.183.499.183v.548h.166c.166 0 .332 0 .332-.183 0-.182 0-.365-.166-.548a.687.687 0 0 0-.083-.274c-.041-.091-.083-.183-.083-.274v-.183l-.499.366c-.166 0-.332-.183-.498-.366-.083 0-.125-.045-.167-.091-.041-.046-.083-.091-.166-.091l.166-.183v-.73h.167l-.167-.183-.166.365-.332-.366c-.166-.182-.166-.182-.333-.182l-.498-.183.831-.365-.166-.183h-.333l-.166-.183c-.166-.365-.665-.73-1.164-.913h-.332c-.233-.128-.303-.346-.381-.591a2.75 2.75 0 0 0-.118-.323l-.332-.913-.665.183h-.166v-.366c0-.365-.167-.73-.333-1.096-.332.365-.499.365-.831 0-.26-.143-.317-.063-.408.066-.026.037-.054.077-.091.117l-.332.548v-.731c0-.365-.166-.73-.333-.913v-.366l-.332-1.096v-.365c0-.183 0-.366.166-.366a1.08 1.08 0 0 1 .131-.118c.112-.09.202-.162.202-.43v-.365h.332l.499-.548.166.182.332-.182c.084 0 .125-.046.167-.092.041-.045.083-.091.166-.091v-.365c-.166-.183-.166-.183-.166-.366v-.183c0-.547.831-1.096.997-1.096l.166-.182-.831-.183h1.995l.332.183-1.163-1.28.498.183h.167l.498.183c0-.365-.166-.913-.166-.913v-.183h.166c.166-.183.333-.183.333-.183.332 0 .498 0 .498-.182v-.366l.333.183h.499v.365h.166c.166-.182.166-.365.166-.73v-.183c0-.183 0-.366.166-.548h.831l-.332-.548c-.166 0-.499 0-.665.182h-.166l-.499.183.333-.548c.166-.183.166-.183.166-.365v-.183h.332c.166.183.333.183.499.183l.499.182v-.182c-.333-.366-.499-.914-.499-1.462v-.183c0-.09.041-.182.083-.274a.687.687 0 0 0 .083-.274l.333-1.827v1.097l.332-.366c.166-.183.332-.365.665-.365V9.01l-.333-.548h-.498v-.548l-.166-.365.166-.183v-.183l-.831-.913h-.998v-.183h-.166V5.54h-.166c0 .092-.042.137-.083.183-.042.046-.083.091-.083.183l-.167.365-.332-.183c0-.182-.166-.182-.166-.182a.985.985 0 0 1-.167-.274.957.957 0 0 0-.166-.274c-.332.182-.332.365-.332.73v.731l-.333-.183c-.166-.182-.332-.182-.332-.182l-.665-.183c-.499.548-.997.73-1.662.73v.366c0 .268.089.34.202.43.041.033.086.07.13.118l.333.183-.333.183c-.332.182-.499.182-.831.182l.166.366v.182h-.166l1.496.366-1.496.182a.858.858 0 0 0-.369.366c-.037.06-.074.122-.13.183 0 .365-.166.548-.498.365-.167.183-.167.365-.167.548v.913h-.498l-.167-.182c0-.183-.166-.366-.332-.366h-.166v-.73h.166l-.166-.366v-.365h.332c.083 0 .166-.046.25-.091.083-.046.166-.092.249-.092.166-.183.166-.365.166-.548v-.73h.166c.167-.183.333 0 .499.182l.436.16-.103-.343c-.167-.365-.333-.73-.333-1.096v-.183h.333c.166-.182.166-.365.166-.73V6.27s.166-.183.332-.183v-.365c0-.548.333-.914.831-1.279l.665-.913.167.182v.366c.221-.122.295-.406.369-.69.037-.143.074-.285.129-.407.064-.14.103-.252.136-.348.055-.156.094-.27.197-.382l.166-.183.166.183c.333.182.499.182.831 0 0 0 .333-.183.499-.183h.166v.183c0 .182.166.365.166.365.333.548.499.914.499 1.279 0 .365 0 .548-.166.73l.166.183c0 .059 0 .08.006.082.003 0 .007-.005.015-.013.021-.023.062-.069.145-.069h.333v.183c.166.365.332.548.498.548.167 0 .167-.183.167-.183 0-.182-.167-.365-.333-.548l-.332-.548h.332l-.332-.913a4.66 4.66 0 0 0-.181-.35c-.088-.155-.152-.268-.152-.38v-.366h.665l.499.182-.166.731v.366h.831v.182h.332l-.166-.182v-.183c-.063-.07-.127-.113-.181-.15-.088-.06-.151-.103-.151-.216l-.167-.365.333.183h.498l-.166 1.279c0 .365-.166.913-.332 1.461v.183h.166c.083-.091.166-.137.249-.183a.857.857 0 0 0 .25-.183v-.182l-.167-.183h.167v-.365h.166l.332-.548v.913l.499.365-.499.183.167.183c.498.365.831.913.831 1.644v.183h-.166c-.167 0-.333.183-.333.365h-.166c0 .183.166.366.332.366h.167l.332-.183-.166.365c0 .183-.166.366-.166.366l.166.73s-.166.731-.166 1.097v.182h-.167s-.332 0-.332.183v.183h.166c.166 0 .166.182.166.365s0 .365-.166.73l-.166.366h-.166c-.083 0-.167-.045-.25-.091-.083-.046-.166-.091-.249-.091l-.333-.183h-.166v.183s.166.182.166.365a.592.592 0 0 1 .167.365h-.167l-.166.366h-.166v.365c0 .183.166.365.332.365h.167v.731l.166.183h-.166v.183c0 .182 0 .182.166.365l.166.183-.166.182c-.166 0-.166.183-.166.183l.166.366-.333-.183c-.166 0-.166 0-.332-.183l-.332-.183.166.366s.166.365.166.548v.183h-.499c-.166.182-.166.365-.166.548v.182h-.166a1.472 1.472 0 0 0-.333.914l-.166.548h-.166c-.332 0-.499.183-.665.365-.166.183-.166.183-.499.183v.365c0 .914-.577 1.193-1.154 1.472-.115.056-.231.112-.342.173l-.498.182c.166.366.332.548.831.548h.166v.183c.166.548.166.73.166.73 0 .184.166.184.166.184h.333v.73h.831l-.166.366v.548c.997 0 1.662.73 1.828 2.01 0 .182.167.182.167.182l.332-.183-.166.366c0 .183 0 .365.166.365h.332v.366c.167.73.333 1.461.832 1.827l.166.182-.166.366c-.167.182-.167.365-.167.548v.182l.333.366s.166 0 .166.183l.166.365h-.498v.183c0 .09.041.182.083.274.041.091.083.182.083.274l.332.913.499.73c.332.366.499.549.499 1.097v.183h-.665v.365l.166.366h.166v.182h.166v.366h-.166v1.461c0 .365 0 .548-.166.73l-.499.184c.111.242.148.324.209.351.031.014.068.014.124.014.166 0 .332-.183.498-.365l.333-.548v1.278Zm-.997-3.653c-.244 0-.309.097-.392.222-.03.045-.063.094-.107.143-.083 0-.125.046-.166.091-.042.046-.083.092-.167.092v.182c0 .366 0 .548.167.731 0 .076.028.12.062.172.047.073.104.162.104.376v.183c.332 0 .499 0 .499-.365l.332-1.28h-.166c-.166-.182-.166-.365-.166-.365v-.182Zm-6.151 18.067v-.529a.687.687 0 0 0-.083-.274.687.687 0 0 1-.083-.274l-.166-.365.332-.183a.555.555 0 0 0-.499-.548c-.166 0-.332 0-.498.183v.182c.166.183.166.183.332.183h.166v.913c.136.449.272.652.499.712Zm0-36.885-.499-.183-.166.549h.499l.166-.366Z"
          fill="#fff"/>
    <path d="m232.603 9.011.333.366c0-.183-.166-.366-.333-.366ZM270.005 22.53l-.333-.913 1.164 1.096-.416-.73h1.247l.332-.183-.166-.365c-.083 0-.124-.046-.166-.092-.042-.045-.083-.091-.166-.091l-.166-.183-.167.183c0 .113-.063.156-.151.216-.054.036-.118.08-.181.15l-.44.322-.391-.688.665.365v-.183c.166-.365.332-.548.498-.548.167 0 .167-.182.167-.182l.166-.183-.333-.183c-.083 0-.124-.045-.166-.091-.041-.046-.083-.091-.166-.091l.166-.548.333-.914-.499.183c-.166 0-.166-.183-.166-.183l-.333-.183v-.548l-.499.366h-.332l.332-.731-.498.183h-.333v.182s0 .183-.332.183l-3.99-.548-.166-.365c-.055-.061-.092-.122-.129-.183-.074-.122-.148-.244-.369-.366h-.333l.166.366c0 .183.167.365.333.548.166.183.166.365.166.365v.366l-.133.292-.199-.11c-.333-.365-.665-.73-.665-1.096v-.365c0-.73.166-1.462.831-1.644h.166l.332.73.167-.913v-.914c0-.913-.167-1.644-.499-2.375v-.182h-.166c-.166 0-.499-.183-.499-.366l.665-.182c.166-.183.332-.183.665-.183h.332l-.166-.365s0-.183-.166-.183l-.333-.366-.166-.365-.332.365s0 .183-.166.183l-.499-.182c-.499 0-.831-.183-1.164-.549v-.182h.166c.333 0 .665 0 .832-.183h.166v-.183c0-.365-.333-.548-.665-.73-.333-.183-.665-.366-.831-.731v-.183h.166c.222 0 .443.162.665.325.111.081.222.162.332.223 0 0 .167.183.333.183l.166.183.166-.183s.167-.183.333-.183l.332-.183h-.332a.963.963 0 0 0-.181-.15c-.088-.059-.152-.102-.152-.215 0 0 0-.183.333-.183l.498.366c0 .182.167.182.333.182h.166V7.55c0-.366-.148-.569-.295-.772a1.887 1.887 0 0 1-.204-.324l-.332-.366h-.166c-1.663 0-2.66.366-2.992.914-.167.182-.167.365-.167.548 0 .182 0 .548.167.913h-.167c-.498 0-.498.731-.498.914v1.279l-.333 1.096c-.166.365-.332.73-.332 1.096 0 .183 0 .365.166.548-.332.183-.499.365-.499.73 0 .184 0 .549.167.914l-.499.366v.365c0 .091.041.228.083.365.042.137.083.274.083.366l.166.73-.166.731-.166.914.166.183.166.73h-.166c-.332 0-.499.366-.499.548v.183c0 .548.333 1.279.499 1.462-.665.182-.997.548-.997 1.096 0 .365 0 .548.166 1.096.166.365.166.73.166 1.279 0 .183 0 .365-.166.548v.365h.166c.333 0 .831.183.998.548l-.832.366.499.182h.166s.167.183.333.183l.166.183h-.166a.556.556 0 0 0-.499.548c.254.279.605.451.905.599.092.045.18.088.259.132.498.182.997.365 1.163.73h1.33c.499 0 .831 0 1.164-.182h.166v-.183s0-.183.166-.183h.166l.167.183.332.73v-.73c0-.183 0-.183.166-.183h.333c.166.366.332.366.831.183.083 0 .208-.046.332-.091.125-.046.25-.092.333-.092h.332l-.166-.182v-.183h.499l-.166-.365v-.366s0-.182.332-.182h.332v-.183c0-.113.064-.226.152-.382l.001-.002c.054-.096.117-.208.18-.347l.166-.183.499.183.166-.183v-.182c0-.183 0-.183-.166-.366v-.365c0-.365-.166-.548-.333-.73l.665-.732v-.182h-.166a3.997 3.997 0 0 0-.166-.086c-.221-.11-.333-.164-.333-.462v-.183h.167c.498 0 .997 0 1.163-.183l.333-.365h-.333c.117-.257-.012-.333-.157-.419-.061-.037-.126-.075-.175-.13Zm-5.32-3.836h-.332c0 .183.166.183.166.183h.166v.183c0 .182 0 .365-.166.548l-.332.365-.166-.365v-.183l-.167.365a7.74 7.74 0 0 1-1.163.548l-.499.183c.166.183.499.183.831.183h.998l-.333.365c-.166 0-.166.183-.166.183-.166.365-.333.548-.665.548h-.166v.183c.166.182.332.365.498.365h.333v.183c0 .182 0 .365.166.548.166 0 .166.183.166.183l.333.548-.499-.183h-.166v.183l.332.182c.333.183.665.366.665.914l-.166.365c0 .214-.057.303-.104.376a.285.285 0 0 0-.062.172l.332.731c.333.548.499 1.096.333 1.827v.183h.166c.831-.183.997-.366 1.163-.731.167-.366.333-.548.998-.548h.166v-.183c-.166 0-.166-.183-.166-.365 0-.183 0-.366.166-.548 0-.092.042-.229.083-.366.042-.137.083-.274.083-.365v-.366h.167c.166-.182.166-.365.166-.73 0-.366 0-.914-.166-1.462v-.183s-.333-.913-.333-1.096l-.499-.365h-.166v-.914l-.166-.182v-.366c0-.365-.333-.365-.831-.365h-.333v-.548l-.665-.183ZM248.561 17.598l.851 1.247-.019-.15s-.167-.914-.167-1.28v-.182h.333c.166 0 .332-.183.332-.183.166 0 .166-.183.166-.366v-.547l-.166-.731c0-.548.166-.914.499-1.097l.332-.365v-.183c0-.267-.089-.339-.202-.43-.041-.033-.086-.069-.13-.118-.166 0-.166-.182-.166-.182l-.167-.366h.499c.333 0 .333-.182.333-.73v-1.462l.831-2.01V7.002h.498c.167 0 .167.182.167.365h.166c.499 0 .831-.183.997-.365h.166l.333-.183v.548c.166.183.499.183.665.183.166-.183.332-.183.332-.183h.167v.183c0 .183.166.365.498.365h.166l.167.731v.183h-.167v.365s-.498 0-.664.183c0 .182-.001.365.498.182h.333l-.167.366c-.166.365-.332.548-.664.73l-.333.183v.366l.665 1.461h-.665v.183c0 .183.166.365.499.365h.166v.183c0 .183 0 .365-.166.548-.167.183-.166.183-.166.365v.366l-.167-.183-.166 1.096s-.166.549-.166.731v.183h-.166l-1.164.913.332.548.167.549.665.73h-.499l-.499-.182v.548c0 .365-.166.548-.332.73l-.333.366v.183c0 .182.167.365.333.548.166 0 .166.182.166.182l.332.366h-.332v.365h.166l-.166.548-.166.914.332 1.827c.043.19.098.392.155.604.162.602.344 1.278.344 1.953v.183h-.166c-1.332.325-2.664.506-3.879.67l-.443.06-.333.183v-1.826c-.498-.549-.665-1.28-.665-2.558 0-.392.048-.784.092-1.147.039-.315.075-.608.075-.863v-1.461c0-.214-.057-.366-.105-.491-.033-.089-.062-.165-.062-.24v-.183l.333-.365c.166-.183.166-.183.499-.183h.166l-.128-.984-1.202-.66-.166.183.166.365h-.333c-.243 0-.397.098-.593.222a4.14 4.14 0 0 1-.238.143c-.166.183-.332.183-.498.183h-.499c0 .091-.042.137-.083.183-.042.045-.083.091-.083.182l-.167.183-.332-.365c-.097-.107-.137-.152-.187-.17-.036-.013-.076-.013-.145-.013v.548h-1.164l-.997.183c-.167.182-.167.365-.167.365 0 .113.064.156.152.216a.96.96 0 0 1 .181.15l.665.365-.499.183h-.332l-.665-.183.166.183c.166.182.166.365.166.548a.687.687 0 0 1-.083.274.687.687 0 0 0-.083.274c-.166.365-.166.548-.166.913v.548s0 .183.166.366l.166.182v.366l-.166.183c.166.182.166.365.166.365h.997l-1.496.548c.056.122.13.244.204.365.147.244.295.488.295.731v.183c0 .113-.063.156-.151.215-.054.037-.118.08-.181.15h-.167l.333.548c0 .092.041.183.083.274a.687.687 0 0 1 .083.274v.366l-.332-.183-.998-.183-.332-.182-.831.182h-.333c-.083 0-.166-.045-.249-.091-.083-.046-.166-.091-.249-.091l-.333-.366h-.499l-.166-.182v-.183h-.166v-.183c0-1.096.499-1.644 1.33-1.827h.166s-.332-.365-.499-.365h-.166v-.183l-.166-.183.166-.182c.094-.104.135-.149.153-.201.013-.04.013-.085.013-.165v-.548s-.166-.182-.332-.182h-.166l.166-.183c.166-.183.166-.365.166-.548v-.73l.333-.549-.333-.183v-.365h.665v-.183c0-.182 0-.182-.166-.182h-.166v-1.462h.664V17.78l-.166-.183c-.332-.183-.498-.365-.498-.73v-.183h.332l.831.182v-.183c0-.182 0-.365-.332-.365h-.333l.166-.182c.167-.183.167-.366.167-.366.03-.067.055-.128.078-.183.099-.243.149-.365.42-.365h.167c0-.183 0-.365-.167-.365-.166 0-.332 0-.498.182-.097.107-.138.151-.188.17-.035.013-.076.013-.145.013h-.166v-.365c0-.183 0-.366.166-.549.167-.182.333-.182.831-.182h.167l-.333-.914c-.044-.097-.089-.182-.13-.261-.113-.215-.202-.385-.202-.652v-.366h.498c.333-.182.333-.365.333-.73 0-.366 0-.548.166-.731h.665l-.166-.183a1.472 1.472 0 0 1-.333-.913V9.01h.167c.166-.182.332-.548.332-.548l.166-.182h.499c.166 0 .166 0 .166-.183l-.332-.183.498-.182h.167v-.549l.166.183c.332 0 .498-.183.498-.183h.167v.183c0 .183 0 .183.166.183.103.113.142.086.196.05.034-.023.073-.05.136-.05l.832-.73-.665.913c-.167.182-.167.365-.167.365-.036.08-.064.151-.09.216-.092.23-.149.372-.408.515h-.167l.167.365s.166.183.166.365v.183l-.166.183v.183l.166.365h-.166c0 .183 0 .183.166.365v.548l-.333.366.167.73v.183c0 .183 0 .366-.333.548l-.166.183.332.365c.333.183.499.366.499.731v.183h-.166c-.083 0-.125.046-.166.091-.042.046-.083.092-.167.092-.166.182-.166.365-.166.548v.913l-.166.73v1.097h-.499c0 .183.167.366.167.366.332 0 .831 0 .997-.183.166 0 .166-.183.166-.183v-.365h.166c.499 0 .832-.183.998-.548.13-.286.259-.348.468-.449.059-.028.124-.06.197-.1h.166v.731l.166-.182c.166 0 .291-.046.416-.092.124-.045.249-.091.415-.091h.333l-.499-.548c-.166 0-.332-.183-.332-.365v-.183h.166c.316 0 .565-.074.748-.127.105-.031.188-.056.249-.056.333-.183.499-.183.665 0h.166v.548c0 .183-.166.366-.166.366h-.499v.182h.167c.083 0 .124.046.166.092.041.045.083.09.166.09v.184l.166.365Zm4.987-1.096v-.183h.831l-.831.183ZM218.807 10.107h.166v.731c0 .731 0 1.096-.998-.913h.333c.166 0 .332 0 .499.182ZM218.111 10.612a5.4 5.4 0 0 0-.136-.687l.167.365v.183a.338.338 0 0 1-.031.139Z"
          fill="#fff"/>
    <path d="M214.429 12.18c.136-.142.294-.285.554-.428v-.731h.167c.332-.183.498-.183.831-.183h.166l-.166-.182c-.167-.183 0-.366 0-.366.166-.365.665-.548 1.33-.548h.166v.183c0 .214.057.302.104.376.033.052.062.096.062.172l.166.365c.123 0 .247-.1.302-.226.123.948-.063 1.745-.468 2.784v.183l-.166.73c-.166.366-.166.731-.166.731l-.333.366c0 .182-.166.365-.166.365 0 .183 0 .548.166.73v.366c-.332.548-.499 1.096-.665 1.827-.166 1.096-.332 2.01-.997 2.375.166.183.166.548.166.913 0 .548-.166 1.28-.332 2.01-.167.731-.333 1.827-.333 2.74v.731h-.166c-.166 0-.333.183-.333.183a.618.618 0 0 1-.164.15c-.065.033-.147.033-.334.033h-.167v.548c0 .365 0 .73-.166.913 0 .183-.166.183-.166.183l-.332.183v-1.644c0-.183-.167-.366-.499-.366h-.333v-.183c0-.182-.166-.365-.166-.365h-.166l.166-1.827c0-.73.166-2.01.166-2.01l.499-.913V21.8c0-.366 0-.73.333-.73 0-.366-.167-.914-.167-.914v-.183h.167c0-.183.166-.183.166-.183l.332-.365v-.366c0-.433.104-.753.23-1.138.033-.102.068-.209.103-.323.166-.365.332-.73.332-1.096v-.366l.166-.365.499-.73h-.166l-.499.365.499-1.097c.166-.182.332-.548.332-.913v-.183l-.665.183v-.73l.111-.486Z"
          fill="#fff"/>
    <path d="M213.748 12.833a2.71 2.71 0 0 0-.13-.272 4.804 4.804 0 0 1-.131-.261l.166-.183h.167l.665-.183-.056.247-.111.119c-.138.305-.393.482-.57.533ZM213.487 13.944v-1.096h.166c.028 0 .06-.005.095-.015.044.113.072.231.072.38 0 .092-.042.183-.083.274-.042.092-.084.183-.084.274v.183h-.166ZM213.487 13.944c-.329.145-.605.29-.83.456l.83-.456ZM212.49 14.538v-.046l.167-.092c-.059.044-.115.09-.167.138ZM211.991 15.51v-.104c.083-.366.25-.64.499-.868v1.05h-.333l-.166-.078ZM211.63 15.6l-.636-.56.997.47v.078h-.166c-.072 0-.137.004-.195.011Z"
          fill="#fff"/>
    <path d="M211.493 16.32h-.167c-.166 0-.166-.184-.166-.366 0-.157.122-.313.47-.355l.195.172v.365l-.332.183Z"
          fill="#fff"/>
    <path d="M210.661 17.598v-.365h.167c.083 0 .124.045.145.068l.01.01.005.003c.006-.002.006-.023.006-.081v-.549l.499-.365h.498l-.166.366c-.166.182-.166.182-.166.365v.183l.166.365h-1.164ZM210.495 17.963v-.365h.166v.183l-.166.182ZM209.365 19.462l-.2-.22v-.183c0-.182 0-.365.167-.548.166-.182.166-.182.166-.365v-.365h.499c.166.182.332.182.498.182v.183l-.166.183c-.083.091-.166.137-.249.182-.083.046-.167.092-.25.183l.333.366h-.499a2.322 2.322 0 0 0-.299.402Z"
          fill="#fff"/>
    <path d="M209.293 19.6a1.86 1.86 0 0 1 .072-.138l.133.146h-.166l-.039-.007ZM209.293 19.6c-.963-.16-1.127.38-1.291.921l-.499.913v.183l-.166.183h-.499l-.499.183c-.332.548-.997 1.461-1.662 2.01h-.498v.365s0 .182-.167.182h-.665l.167.366v.182s0 .183.166.183l.166.183h-.166c-.499 0-.665 0-.831.365l-.333.366-1.496 1.096v-.183c0-.365 0-.548-.166-.913l-.166-.731h.665l-.167-.366v-.182l-.166-.731s.166 0 .166-.183l.167-.183c.166-.182.166-.547.166-.913V21.8h.831v-.548c0-.548.166-.914.499-1.462.332-.548.498-1.096.498-1.827v-.365h.499l-.166-.365v-.366l.166-.365.333-.366h-.167s0-.182-.166-.365l.499-.183h.166c.332 0 .332-.182.332-.548 0-.182.167-.548.499-.548h.166v-.73c0-.731.333-1.28.998-1.828l.166-.182V9.377h-.166l-.167-.183a.904.904 0 0 0-.181-.15c-.087-.06-.151-.102-.151-.215v-.366l-.332.548c-.167 0-.333.183-.333.366-.049.053-.083.107-.112.151-.068.107-.103.16-.22.031l-1.164-.548.665.914c.166.182.332.365.332.73v.183c-.254 0-.411.214-.545.396-.041.056-.08.11-.119.152l-.333.548-.166-.182v-.548c-.097-.107-.138-.152-.188-.17-.035-.013-.076-.013-.145-.013h-.166v.365c0 .366 0 .548-.166.914 0 .182-.042.32-.083.457a1.455 1.455 0 0 0-.083.456v.366c0 .182-.167.182-.499.182h-.166l-.665.183.499.365v.549c0 .182 0 .182-.167.365h-.332v2.558c-.166 0-.333 0-.499.182h-.166v.366c0 .182-.166.365-.166.365l-.665.73.498-.182.167.183h-.167c-.498 0-.831.548-.997.913v.183h.333s.166 0 .166.183l-.333.548c0 .091-.041.137-.083.183-.041.045-.083.09-.083.182l-.166.183.166.183c.166.182.166.365.166.548v.182h-.166c-.332.183-.499.366-.665.731v.183l.166.183v.182s-.166.183-.332.183h-.332v.183c0 .182-.167 1.096-.167 1.096s-.166.73-.166 1.096v.183l.499.365c.498.183.498.365.498.73 0 .184 0 .366.167.366l.332.366v-.366h.665v.366h.166c.083 0 .167-.046.25-.092.083-.045.166-.091.249-.091.166-.183.332-.365.831-.365h.166v-.183c.167-.548.333-.914.665-1.096l.166-.183h.333c.499 0 .665-.183.831-.548l.499-.548s.166-.183.498-.366c.167 0 .333-.182.333-.182l.166-.183v-.183s.166 0 .333-.182h.166l-.166-.366v-.365h.498l-.166-.365.166-.183h.166c.167 0 .167 0 .333-.183.083 0 .166-.046.249-.091.083-.046.167-.092.25-.092h.166v-.182c.044-.098.077-.183.107-.262.083-.215.148-.384.392-.652l.166-.365.166.183.166-.549c.049-.107.083-.198.112-.274.069-.182.103-.274.221-.274h.498v-.182c0-.185.043-.37.128-.555Z"
          fill="#fff"/>
</svg>